<svg width="69" height="48" viewBox="0 0 69 48" fill="none" xmlns="http://www.w3.org/2000/svg">
<g clip-path="url(#clip0_8338_29189)">
<path d="M28.5391 5.22846C29.6591 4.04959 31.0076 3.11128 32.5022 2.47072C33.9969 1.83016 35.6063 1.50078 37.2325 1.50271C39.3961 1.50506 41.5194 2.08829 43.3807 3.19151C45.242 4.29472 46.7729 5.87747 47.8136 7.7744C49.6945 6.94269 51.7305 6.51941 53.7872 6.53249C57.7397 6.53249 61.5303 8.10261 64.3252 10.8975C67.12 13.6923 68.6901 17.483 68.6901 21.4355C68.6901 25.388 67.12 29.1786 64.3252 31.9734C61.5303 34.7683 57.7397 36.3384 53.7872 36.3384C52.8108 36.3383 51.8371 36.2384 50.8811 36.0404C49.5286 38.4503 47.3078 40.2536 44.6715 41.0825C42.04 41.915 39.189 41.7016 36.7108 40.4864C35.7451 42.7621 34.1177 44.695 32.0398 46.0343C29.9619 47.3736 27.5295 48.0576 25.0581 47.9973C22.5867 47.9371 20.1904 47.1354 18.1803 45.6965C16.1701 44.2575 14.6388 42.2476 13.7851 39.9276C13.0144 40.0973 12.2271 40.1806 11.4379 40.176C8.3867 40.1595 5.46686 38.9325 3.31983 36.7645C1.1728 34.5965 -0.0257975 31.6649 -0.0125873 28.6137C-0.0189338 26.5899 0.506615 24.5999 1.51142 22.8432C2.51622 21.0864 3.96502 19.6245 5.71266 18.6039C4.43859 15.6209 4.29631 12.2756 5.31247 9.19517C6.32863 6.11475 8.43347 3.51075 11.2324 1.87133C14.0313 0.231908 17.332 -0.330346 20.5158 0.28998C23.6997 0.910306 26.5479 2.67061 28.5266 5.24089L28.5391 5.22846Z" fill="#059CD9"/>
<path d="M9.93506 24.8383V24.9873C10.6636 25.4892 11.5349 25.7419 12.4189 25.7076C13.8223 25.7076 14.704 24.9625 14.704 23.7578C14.704 22.6401 13.7105 22.2427 12.7914 21.9446H12.6673C11.9718 21.7211 11.4254 21.5224 11.4254 21.0629C11.4254 20.6654 11.7731 20.3798 12.3196 20.3798C12.9428 20.3954 13.5544 20.5525 14.1079 20.8393C14.1079 20.8393 14.2445 20.9263 14.2942 20.8393L14.5798 20.0693C14.5858 20.0407 14.5858 20.0111 14.5798 19.9824H14.5177C13.9081 19.6233 13.2133 19.4346 12.5058 19.4359H12.3692C12.0985 19.4048 11.8244 19.4304 11.5641 19.5111C11.3039 19.5917 11.0633 19.7257 10.8577 19.9044C10.6521 20.0832 10.4859 20.3028 10.3698 20.5493C10.2538 20.7958 10.1903 21.0637 10.1835 21.3361C10.1835 22.5159 11.1645 22.9009 12.096 23.1617H12.245C12.9281 23.3728 13.487 23.5467 13.487 24.0186C13.487 24.4533 13.1019 24.7762 12.4934 24.7762C11.8507 24.786 11.2195 24.6044 10.6802 24.2546L10.4442 24.118H10.3822L9.93506 24.8383Z" fill="white"/>
<path d="M30.5259 24.8383V24.9873C31.2544 25.4892 32.1257 25.7419 33.0097 25.7076C34.4131 25.7076 35.2948 24.9625 35.2948 23.7578C35.2948 22.6401 34.3013 22.2427 33.3823 21.9446H33.2581C32.5626 21.7211 32.0162 21.5224 32.0162 21.0629C32.0162 20.6654 32.3639 20.3798 32.9103 20.3798C33.5336 20.3954 34.1451 20.5525 34.6987 20.8393C34.6987 20.8393 34.8353 20.9263 34.885 20.8393L35.1706 20.0693C35.1767 20.0407 35.1767 20.0111 35.1706 19.9824C35.1502 19.978 35.129 19.978 35.1085 19.9824C34.4989 19.6233 33.8041 19.4346 33.0966 19.4359H32.8358C32.5652 19.4048 32.291 19.4304 32.0307 19.5111C31.7705 19.5917 31.5299 19.7257 31.3243 19.9044C31.1187 20.0832 30.9526 20.3028 30.8365 20.5493C30.7204 20.7958 30.6569 21.0637 30.65 21.3361C30.65 22.5159 31.6312 22.9009 32.5626 23.1617H32.7116C33.3947 23.3728 33.9535 23.5467 33.9535 24.0186C33.9535 24.4533 33.5686 24.7762 32.96 24.7762C32.3173 24.786 31.6861 24.6044 31.1468 24.2546L30.9109 24.118L30.5259 24.8383Z" fill="white"/>
<path d="M45.7644 21.2616C45.6519 20.8916 45.4707 20.5461 45.2304 20.2432C44.9793 19.9546 44.6704 19.7219 44.3237 19.5602C43.5268 19.2397 42.6368 19.2397 41.8399 19.5602C41.4951 19.719 41.1897 19.9523 40.9457 20.2432C40.6962 20.5401 40.514 20.8875 40.4117 21.2616C40.1831 22.0737 40.1831 22.9333 40.4117 23.7454C40.5163 24.1223 40.6981 24.4734 40.9457 24.7762C41.1868 25.0671 41.4932 25.2969 41.8399 25.4468C42.6361 25.7713 43.5276 25.7713 44.3237 25.4468C44.6762 25.317 44.9947 25.109 45.2552 24.8383C45.4933 24.5294 45.6742 24.1803 45.7892 23.8075C46.0063 22.9938 46.0063 22.1374 45.7892 21.3237L45.7644 21.2616ZM44.5225 22.5035C44.55 23.0579 44.4208 23.6088 44.1499 24.0931C44.0265 24.2802 43.8549 24.4304 43.6531 24.5278C43.4529 24.6265 43.2298 24.6694 43.0073 24.652C42.7846 24.6734 42.5605 24.6303 42.3615 24.5278C42.1598 24.4304 41.9881 24.2802 41.8647 24.0931C41.6196 23.5991 41.4921 23.055 41.4921 22.5035C41.4921 21.952 41.6196 21.4079 41.8647 20.9138C41.9871 20.7264 42.1579 20.5754 42.3591 20.477C42.5602 20.3787 42.7842 20.3365 43.0073 20.355C43.2296 20.3416 43.4516 20.3843 43.6531 20.4792C43.8549 20.5766 44.0265 20.7268 44.1499 20.9138C44.4268 21.3959 44.5563 21.9486 44.5225 22.5035Z" fill="white"/>
<path fill-rule="evenodd" clip-rule="evenodd" d="M55.4018 24.503H55.3148C55.1403 24.5771 54.9564 24.6272 54.7684 24.652C54.5535 24.6707 54.3375 24.6707 54.1226 24.652C53.8773 24.6657 53.6319 24.6276 53.4023 24.5402C53.1697 24.4587 52.9577 24.3273 52.7813 24.1552C52.4112 23.7021 52.2289 23.1242 52.2721 22.5407C52.2504 21.9907 52.4121 21.449 52.7316 21.0008C52.8808 20.8054 53.0775 20.6515 53.303 20.5537C53.5289 20.4526 53.7765 20.4099 54.0232 20.4295C54.444 20.4183 54.8637 20.477 55.2652 20.6033C55.2789 20.6092 55.2938 20.6118 55.3088 20.6111C55.3237 20.6103 55.3383 20.6062 55.3515 20.5991C55.3646 20.5919 55.3759 20.5819 55.3847 20.5697C55.3934 20.5576 55.3992 20.5436 55.4018 20.5288C55.5136 20.2432 55.5881 20.0321 55.6998 19.7216C55.7049 19.6928 55.7049 19.6634 55.6998 19.6346C55.6798 19.627 55.6577 19.627 55.6377 19.6346C55.3834 19.5452 55.1216 19.4787 54.8553 19.4359C54.5617 19.4179 54.2672 19.4179 53.9736 19.4359C53.5222 19.4258 53.0738 19.5104 52.6571 19.6843C52.2961 19.8455 51.9742 20.0827 51.7133 20.3798C51.4545 20.6761 51.2599 21.0229 51.142 21.3982C51.0198 21.8009 50.957 22.2193 50.9557 22.6401C50.9115 23.4931 51.191 24.3314 51.7381 24.9873C52.0387 25.2888 52.4004 25.5224 52.7989 25.6723C53.1973 25.8223 53.6233 25.8851 54.0481 25.8567C54.6161 25.8575 55.1798 25.7565 55.7123 25.5586C55.7199 25.5386 55.7199 25.5165 55.7123 25.4965C55.7188 25.4852 55.7222 25.4723 55.7222 25.4592C55.7222 25.4462 55.7188 25.4333 55.7123 25.422L55.4018 24.503Z" fill="white"/>
<path fill-rule="evenodd" clip-rule="evenodd" d="M61.4 21.038C61.2905 20.702 61.1176 20.3901 60.8908 20.119C60.682 19.8735 60.4239 19.6746 60.1333 19.5353C59.7709 19.3861 59.3826 19.3101 58.9907 19.3117C58.5433 19.3003 58.0986 19.3851 57.6867 19.5601C57.3301 19.7167 57.0152 19.9549 56.7677 20.2556C56.5201 20.5584 56.3382 20.9095 56.2336 21.2864C56.1138 21.6896 56.0511 22.1077 56.0474 22.5283C56.0499 22.9491 56.1126 23.3673 56.2336 23.7703C56.3441 24.1515 56.5442 24.5006 56.8173 24.7886C57.0916 25.0809 57.4324 25.3025 57.8109 25.4344C58.2708 25.6073 58.7604 25.6875 59.2515 25.6704C59.9407 25.7074 60.6283 25.5707 61.251 25.273C61.251 25.273 61.3379 25.273 61.251 25.0867L60.9902 24.3539C60.9946 24.3334 60.9946 24.3123 60.9902 24.2918H60.9033C60.388 24.5036 59.8329 24.6011 59.2763 24.5775C59.0319 24.6115 58.7829 24.5889 58.5485 24.5117C58.3141 24.4344 58.1006 24.3044 57.9243 24.1317C57.748 23.959 57.6136 23.7482 57.5315 23.5154C57.4494 23.2827 57.4218 23.0342 57.4507 22.7891H61.4H61.4745C61.4811 22.7778 61.4845 22.765 61.4845 22.7519C61.4845 22.7388 61.4811 22.7259 61.4745 22.7146C61.5566 22.1561 61.5314 21.587 61.4 21.038ZM57.4383 21.8701C57.478 21.5401 57.5882 21.2224 57.7612 20.9387C57.8856 20.7494 58.0567 20.5954 58.258 20.4916C58.457 20.3886 58.6801 20.3414 58.9038 20.355C59.1232 20.3437 59.3418 20.3908 59.5371 20.4916C59.7314 20.5961 59.8943 20.7504 60.0091 20.9387C60.1782 21.2207 60.2723 21.5414 60.2823 21.8701H57.4383Z" fill="white"/>
<path fill-rule="evenodd" clip-rule="evenodd" d="M29.5821 21.038C29.4825 20.6978 29.3086 20.3839 29.0729 20.119C28.8642 19.8735 28.606 19.6746 28.3154 19.5353C27.953 19.3861 27.5647 19.3101 27.1728 19.3117C26.7254 19.3003 26.2807 19.3851 25.8688 19.5601C25.5122 19.7167 25.1974 19.9549 24.9498 20.2556C24.7022 20.5584 24.5203 20.9095 24.4158 21.2864C24.2941 21.6889 24.2354 22.1079 24.2419 22.5283C24.2342 22.9489 24.2929 23.368 24.4158 23.7703C24.5262 24.1515 24.7263 24.5006 24.9995 24.7886C25.2737 25.0809 25.6146 25.3025 25.993 25.4344C26.4529 25.6073 26.9425 25.6875 27.4336 25.6704C28.1229 25.7074 28.8104 25.5707 29.4331 25.273C29.4331 25.273 29.52 25.273 29.4331 25.0867L29.1723 24.3539C29.1583 24.3274 29.1367 24.3058 29.1102 24.2918C28.595 24.5036 28.0399 24.6011 27.4833 24.5775C27.2389 24.6115 26.9899 24.5889 26.7555 24.5117C26.5211 24.4344 26.3075 24.3044 26.1312 24.1317C25.9549 23.959 25.8206 23.7482 25.7385 23.5154C25.6564 23.2827 25.6288 23.0342 25.6577 22.7891H29.6318H29.7063C29.7129 22.7778 29.7163 22.765 29.7163 22.7519C29.7163 22.7388 29.7129 22.7259 29.7063 22.7146C29.7722 22.153 29.7301 21.5839 29.5821 21.038ZM25.6204 21.8701C25.6602 21.5401 25.7703 21.2224 25.9433 20.9387C26.0677 20.7494 26.2388 20.5954 26.4401 20.4916C26.6391 20.3886 26.8622 20.3414 27.0859 20.355C27.3054 20.3437 27.5239 20.3908 27.7193 20.4916C27.9135 20.5961 28.0764 20.7504 28.1912 20.9387C28.3603 21.2207 28.4544 21.5414 28.4644 21.8701H25.6204Z" fill="white"/>
<path d="M18.6161 21.6838H17.9951C17.6637 21.6754 17.3329 21.7172 17.014 21.808C16.7146 21.8819 16.4321 22.0126 16.1819 22.193C15.9335 22.3685 15.7328 22.6033 15.5982 22.8761C15.4581 23.1483 15.3897 23.4518 15.3995 23.7578C15.3869 24.0707 15.4509 24.3818 15.5858 24.6644C15.6976 24.9128 15.8733 25.127 16.095 25.2854C16.3376 25.4577 16.612 25.5801 16.9022 25.6455C17.2497 25.7155 17.6035 25.7488 17.9578 25.7449C18.374 25.7517 18.7899 25.7184 19.1998 25.6455C19.5972 25.5834 20.0691 25.4841 20.2057 25.4468L20.4789 25.3847C20.503 25.3933 20.5293 25.3933 20.5534 25.3847C20.5608 25.3562 20.5608 25.3263 20.5534 25.2978V21.6093C20.5793 21.2872 20.5362 20.9633 20.427 20.6592C20.3177 20.3551 20.145 20.0778 19.9201 19.8458C19.3963 19.4515 18.7487 19.2576 18.0945 19.2994C17.7362 19.301 17.3788 19.3343 17.0264 19.3987C16.5907 19.4786 16.1711 19.6296 15.7845 19.8458V19.9203C15.7785 19.949 15.7785 19.9786 15.7845 20.0072L16.0701 20.7648H16.1571H16.2192C16.7571 20.5033 17.3474 20.3674 17.9454 20.3674C18.2908 20.3411 18.6353 20.4283 18.9265 20.6158C19.1501 20.7897 19.2619 21.038 19.2619 21.572V21.7335L18.6161 21.6838ZM17.0388 24.4781C16.9455 24.4157 16.8653 24.3355 16.8029 24.2422C16.7162 24.0826 16.6774 23.9016 16.6911 23.7206C16.6774 23.5757 16.7032 23.4298 16.7656 23.2983C16.8237 23.1599 16.9181 23.0397 17.0388 22.9506C17.3803 22.7273 17.7876 22.6265 18.1938 22.6649C18.5558 22.6734 18.9168 22.7066 19.2743 22.7643V24.5651C18.9179 24.639 18.5569 24.6888 18.1938 24.7141C17.7932 24.7692 17.3857 24.686 17.0388 24.4781Z" fill="white"/>
<path fill-rule="evenodd" clip-rule="evenodd" d="M50.6697 19.6346C50.6762 19.6233 50.6797 19.6105 50.6797 19.5974C50.6797 19.5843 50.6762 19.5715 50.6697 19.5601C50.6773 19.5401 50.6773 19.518 50.6697 19.4981C50.4553 19.4357 50.2344 19.3982 50.0115 19.3862C49.6595 19.3394 49.3015 19.3954 48.9807 19.5477C48.7204 19.6568 48.4903 19.8273 48.3101 20.0445V19.5601C48.3174 19.5316 48.3174 19.5017 48.3101 19.4732C48.2963 19.4674 48.2815 19.4644 48.2666 19.4644C48.2517 19.4644 48.2369 19.4674 48.2231 19.4732H47.2048C47.191 19.4674 47.1762 19.4644 47.1613 19.4644C47.1464 19.4644 47.1316 19.4674 47.1178 19.4732C47.1124 19.4977 47.1124 19.5232 47.1178 19.5477V25.4717C47.1105 25.5002 47.1105 25.5301 47.1178 25.5586C47.146 25.568 47.1766 25.568 47.2048 25.5586H48.248C48.2809 25.5586 48.3125 25.5455 48.3358 25.5222C48.3591 25.4989 48.3722 25.4673 48.3722 25.4344V22.4786C48.3608 22.1258 48.4069 21.7735 48.5088 21.4354C48.5727 21.2142 48.6924 21.0132 48.8565 20.8517C48.9888 20.7114 49.1559 20.6085 49.3409 20.5536C49.5146 20.5045 49.6943 20.4794 49.8749 20.4791C50.0191 20.4601 50.1653 20.4601 50.3096 20.4791C50.3841 20.4791 50.4337 20.4791 50.4586 20.3674C50.4834 20.2556 50.6324 19.7464 50.6697 19.6346Z" fill="white"/>
<path fill-rule="evenodd" clip-rule="evenodd" d="M40.8713 16.89L40.4738 16.7907C40.296 16.7783 40.1176 16.7783 39.9398 16.7907C39.6325 16.7756 39.3251 16.8177 39.0332 16.9149C38.7445 17.0262 38.4792 17.1905 38.2508 17.3992C37.8077 17.9039 37.5302 18.5325 37.456 19.2V19.4608H36.5618C36.5336 19.4513 36.5031 19.4513 36.4749 19.4608C36.4691 19.4746 36.4661 19.4893 36.4661 19.5042C36.4661 19.5192 36.4691 19.534 36.4749 19.5477L36.3258 20.3674C36.3258 20.4543 36.3259 20.504 36.45 20.504H37.3318L36.4376 25.4717C36.3839 25.8042 36.3051 26.1322 36.2016 26.4528C36.1353 26.6541 36.0435 26.8461 35.9284 27.0241C35.8335 27.1495 35.704 27.2445 35.5559 27.2973C35.4076 27.3462 35.2525 27.3714 35.0964 27.3718H34.7735C34.6991 27.3602 34.6275 27.335 34.5623 27.2973H34.4754C34.4754 27.3842 34.2146 28.03 34.1773 28.1045C34.1649 28.1365 34.1649 28.1719 34.1773 28.2039H34.2394L34.612 28.3156C34.8016 28.3402 34.9937 28.3402 35.1833 28.3156C35.5165 28.3228 35.8484 28.2724 36.1644 28.1666C36.4456 28.0574 36.6968 27.8829 36.8971 27.6574C37.129 27.3972 37.3064 27.0932 37.4187 26.7632C37.5709 26.3306 37.6872 25.8861 37.7665 25.4344L38.6607 20.3674H39.9646C39.9782 20.374 39.9931 20.3774 40.0081 20.3774C40.0232 20.3774 40.038 20.374 40.0516 20.3674C40.0621 20.3394 40.0621 20.3085 40.0516 20.2804L40.2006 19.4608C40.2006 19.3739 40.2006 19.3242 40.0764 19.3242H38.8345C38.8812 19.021 38.9518 18.722 39.0456 18.43C39.1106 18.271 39.2079 18.1272 39.3313 18.0078C39.421 17.9161 39.5319 17.8478 39.6542 17.809C39.7931 17.7581 39.9412 17.737 40.0888 17.747C40.1961 17.7347 40.3045 17.7347 40.4118 17.747H40.6105C40.7471 17.747 40.7595 17.7469 40.7843 17.6848L41.0948 16.8528C41.1003 16.8411 41.1032 16.8284 41.1032 16.8155C41.1032 16.8026 41.1003 16.7899 41.0948 16.7783L40.8713 16.89Z" fill="white"/>
<path fill-rule="evenodd" clip-rule="evenodd" d="M23.1119 25.4841H21.9694V17.0018C21.964 16.9731 21.964 16.9436 21.9694 16.9149C21.9979 16.908 22.0277 16.908 22.0563 16.9149H23.1119C23.1257 16.9091 23.1405 16.9061 23.1554 16.9061C23.1703 16.9061 23.1851 16.9091 23.1989 16.9149C23.2062 16.9434 23.2062 16.9733 23.1989 17.0018L23.1119 25.4841Z" fill="white"/>
</g>
<defs>
<clipPath id="clip0_8338_29189">
<rect width="68.5661" height="48" fill="white"/>
</clipPath>
</defs>
</svg>
