<?xml version="1.0" encoding="UTF-8" standalone="no"?>
<!-- Created with Inkscape (http://www.inkscape.org/) -->

<svg
   xmlns:dc="http://purl.org/dc/elements/1.1/"
   xmlns:cc="http://creativecommons.org/ns#"
   xmlns:rdf="http://www.w3.org/1999/02/22-rdf-syntax-ns#"
   xmlns:svg="http://www.w3.org/2000/svg"
   xmlns="http://www.w3.org/2000/svg"
   xmlns:sodipodi="http://sodipodi.sourceforge.net/DTD/sodipodi-0.dtd"
   xmlns:inkscape="http://www.inkscape.org/namespaces/inkscape"
   width="116.4803"
   height="22.172541"
   viewBox="0 0 30.818746 5.8664849"
   version="1.1"
   id="svg9535"
   inkscape:version="0.92.0 r15299"
   sodipodi:docname="manulife2018.svg">
  <defs
     id="defs9529">
    <clipPath
       id="clipPath159"
       clipPathUnits="userSpaceOnUse">
      <path
         inkscape:connector-curvature="0"
         id="path157"
         d="m 36.064,955.299 h 86.696 v 15.879 H 36.064 Z" />
    </clipPath>
  </defs>
  <sodipodi:namedview
     id="base"
     pagecolor="#ffffff"
     bordercolor="#666666"
     borderopacity="1.0"
     inkscape:pageopacity="0.0"
     inkscape:pageshadow="2"
     inkscape:zoom="7.767568"
     inkscape:cx="57.740215"
     inkscape:cy="10.586795"
     inkscape:document-units="mm"
     inkscape:current-layer="layer1"
     showgrid="false"
     fit-margin-top="0"
     fit-margin-left="0"
     fit-margin-right="0"
     fit-margin-bottom="0"
     units="px"
     inkscape:window-width="1280"
     inkscape:window-height="744"
     inkscape:window-x="-4"
     inkscape:window-y="-4"
     inkscape:window-maximized="1" />
  <metadata
     id="metadata9532">
    <rdf:RDF>
      <cc:Work
         rdf:about="">
        <dc:format>image/svg+xml</dc:format>
        <dc:type
           rdf:resource="http://purl.org/dc/dcmitype/StillImage" />
        <dc:title></dc:title>
      </cc:Work>
    </rdf:RDF>
  </metadata>
  <g
     inkscape:label="Layer 1"
     inkscape:groupmode="layer"
     id="layer1"
     transform="translate(-67.877663,-185.07747)">
    <g
       id="g9655"
       transform="translate(0.13229202,-0.13228764)">
      <path
         d="m 84.273751,188.77539 -0.441678,0.0526 c -0.384175,0.0476 -0.720725,0.18415 -0.720725,0.51012 0,0.23142 0.199672,0.38947 0.457553,0.38947 0.305153,0 0.557389,-0.20003 0.715433,-0.40005 v -0.5521 z m 0.0053,1.40441 v -0.33126 c -0.157692,0.18415 -0.410281,0.3997 -0.857603,0.3997 -0.515408,0 -0.941564,-0.32632 -0.941564,-0.88371 0,-0.67875 0.636411,-0.92569 1.2573,-0.99413 l 0.242006,-0.0265 c 0.236713,-0.0212 0.320675,-0.1524 0.320675,-0.31009 0,-0.19473 -0.183798,-0.33655 -0.462492,-0.33655 -0.321028,0 -0.631472,0.23107 -0.747183,0.41522 l -0.3683,-0.43639 c 0.22613,-0.29492 0.62618,-0.49988 1.14688,-0.49988 0.6731,0 1.062567,0.34713 1.062567,0.92569 v 2.07786 z"
         style="fill:#000000;fill-opacity:1;fill-rule:nonzero;stroke:none;stroke-width:0.35277778"
         id="path163"
         inkscape:connector-curvature="0" />
      <path
         d="m 86.156455,190.17998 h -0.646994 v -2.93511 h 0.646994 v 0.33126 c 0.231422,-0.21061 0.578556,-0.40005 0.957439,-0.40005 0.347133,0 0.820208,0.20038 0.820208,0.91546 v 2.08844 h -0.646641 v -1.92017 c 0,-0.28928 -0.121003,-0.53657 -0.420864,-0.53657 -0.247298,0 -0.562681,0.21025 -0.710142,0.34748 z"
         style="fill:#000000;fill-opacity:1;fill-rule:nonzero;stroke:none;stroke-width:0.35277778"
         id="path167"
         inkscape:connector-curvature="0" />
      <path
         d="m 90.211071,187.24472 h 0.646994 v 2.93511 h -0.668161 v -0.31538 c -0.178858,0.16827 -0.468136,0.38382 -0.847019,0.38382 -0.378531,0 -0.904522,-0.20003 -0.904522,-0.93627 v -2.06728 h 0.646994 v 1.85667 c 0,0.34219 0.147461,0.57891 0.452261,0.57891 0.252589,0 0.489303,-0.16334 0.673453,-0.3683 z"
         style="fill:#000000;fill-opacity:1;fill-rule:nonzero;stroke:none;stroke-width:0.35277778"
         id="path171"
         inkscape:connector-curvature="0" />
      <path
         d="m 92.219506,190.17998 h -0.646994 v -3.86115 l 0.646994,-0.64171 z"
         style="fill:#000000;fill-opacity:1;fill-rule:nonzero;stroke:none;stroke-width:0.35277778"
         id="path175"
         inkscape:connector-curvature="0" />
      <path
         inkscape:connector-curvature="0"
         id="path177"
         style="fill:#000000;fill-opacity:1;fill-rule:nonzero;stroke:none;stroke-width:0.35277778"
         d="m 93.607898,190.17991 h -0.673453 v -2.93512 h 0.673453 z m -0.33655,-4.25556 c 0.220839,0 0.409928,0.18415 0.409928,0.41028 0,0.22613 -0.189089,0.41557 -0.409928,0.41557 -0.226483,0 -0.415925,-0.18944 -0.415925,-0.41557 0,-0.22613 0.189442,-0.41028 0.415925,-0.41028" />
      <path
         d="m 95.658948,187.78119 h -0.615597 v 2.39889 h -0.646642 v -2.39889 h -0.394758 v -0.53657 h 0.394758 v -0.60502 c 0,-0.48401 0.310092,-0.9204 0.920397,-0.9204 0.283986,0 0.5207,0.0787 0.662517,0.1524 l -0.204964,0.50518 c -0.08961,-0.0526 -0.22613,-0.10513 -0.357717,-0.10513 -0.205316,0 -0.373591,0.1524 -0.373591,0.40499 v 0.56798 h 0.767997 z"
         style="fill:#000000;fill-opacity:1;fill-rule:nonzero;stroke:none;stroke-width:0.35277778"
         id="path181"
         inkscape:connector-curvature="0" />
      <path
         d="m 97.75212,188.39136 c 0,-0.35736 -0.226131,-0.69427 -0.620536,-0.69427 -0.378531,0 -0.673453,0.35772 -0.684036,0.69427 z m -1.325386,0.49459 c 0.0053,0.47343 0.347133,0.80998 0.752122,0.80998 0.305153,0 0.620536,-0.20496 0.757414,-0.45226 l 0.404989,0.37853 c -0.236714,0.34713 -0.694267,0.62583 -1.22555,0.62583 -0.836436,0 -1.357136,-0.63112 -1.357136,-1.536 0,-0.87277 0.56268,-1.53564 1.37795,-1.53564 0.77858,0 1.325739,0.51012 1.293989,1.70956 z"
         style="fill:#000000;fill-opacity:1;fill-rule:nonzero;stroke:none;stroke-width:0.35277778"
         id="path185"
         inkscape:connector-curvature="0" />
      <path
         d="m 78.767349,190.17998 h -0.70485 v -4.07423 h 0.762706 l 1.199444,2.00448 h 0.01058 l 1.1938,-2.00448 h 0.747184 v 4.07423 h -0.710495 v -2.88537 h -0.01023 l -1.236486,2.05176 -1.241073,-2.05176 h -0.01058 z"
         style="fill:#000000;fill-opacity:1;fill-rule:nonzero;stroke:none;stroke-width:0.35277778"
         id="path189"
         inkscape:connector-curvature="0" />
      <path
         d="m 71.951611,186.36066 v 4.58329 l 1.018469,-1.01882 v -4.58294 z"
         style="fill:#00ac5b;fill-opacity:1;fill-rule:nonzero;stroke:none;stroke-width:0.35277778"
         id="path193"
         inkscape:connector-curvature="0" />
      <path
         d="m 69.914708,190.94381 1.018469,-1.01847 v -4.58329 l -1.018469,1.01847 z"
         style="fill:#00ac5b;fill-opacity:1;fill-rule:nonzero;stroke:none;stroke-width:0.35277778"
         id="path197"
         inkscape:connector-curvature="0" />
      <path
         d="m 67.877663,190.94381 1.018469,-1.01847 v -4.58329 l -1.018469,1.01847 z"
         style="fill:#00ac5b;fill-opacity:1;fill-rule:nonzero;stroke:none;stroke-width:0.35277778"
         id="path201"
         inkscape:connector-curvature="0" />
    </g>
  </g>
</svg>
